# Blender 5.1.0
# www.blender.org
mtllib shield_atlas.mtl
o shield
v -0.956288 -0.812285 0.129013
v 0.956288 -0.812285 0.129013
v -0.940534 0.938824 0.114755
v 0.940534 0.938824 0.114755
v -1.354370 1.771643 -0.076891
v 1.354370 1.771643 -0.076891
v -1.154328 -0.922404 -0.076891
v 1.154328 -0.922404 -0.076891
v 0.000000 -1.554801 0.155728
v 0.000000 1.330376 0.142859
v 0.000000 2.217477 -0.076891
v 0.000000 -2.217478 -0.076891
v -0.525168 -1.267118 0.141604
v -0.529609 1.071877 0.137887
v -0.599632 1.699418 -0.076891
v -0.582221 -1.778768 -0.076891
v 0.525168 -1.267118 0.141604
v 0.529609 1.071877 0.137887
v 0.599632 1.699418 -0.076891
v 0.582221 -1.778768 -0.076891
v 0.492379 -0.103061 0.199979
v 0.261268 1.181349 0.142485
v 0.000000 1.823493 0.065233
v 0.570055 1.393207 0.065233
v 0.285715 1.904785 -0.076891
v 0.283974 -1.998123 -0.076891
v 0.000000 -1.959895 0.065233
v 0.561271 -1.553321 0.065233
v -0.260804 -1.430243 0.150633
v -0.261268 1.181349 0.142485
v -0.285715 1.904785 -0.076891
v -0.283974 -1.998123 -0.076891
v 0.786264 -1.068035 0.132412
v 0.805061 1.061698 0.124163
v 0.962900 1.681868 -0.076891
v 0.896584 -1.517648 -0.076891
v -0.786264 -1.068035 0.132412
v -0.492379 -0.103061 0.199979
v -0.805061 1.061698 0.124163
v -1.021086 0.097061 0.126545
v -0.570056 1.393207 0.065233
v -0.962900 1.681868 -0.076891
v -1.204569 1.435188 0.065232
v -0.896584 -1.517648 -0.076891
v -1.289795 0.257558 -0.076891
v -0.561271 -1.553320 0.065233
v -1.037036 -0.926201 0.065233
v 1.037036 -0.926201 0.065233
v 1.289795 0.257558 -0.076891
v 1.204569 1.435188 0.065232
v 1.021086 0.097061 0.126545
v 0.000000 -0.126038 0.215416
v 0.260804 -1.430243 0.150633
v -0.732749 -0.012866 0.179413
v -0.885374 1.382426 0.065233
v -0.848789 -1.327218 0.065233
v 1.172743 0.163364 0.065233
v -1.172743 0.163364 0.065233
v 0.245901 -0.129649 0.211490
v 0.277913 1.565125 0.065233
v 0.277035 -1.760956 0.065233
v -0.245901 -0.129649 0.211490
v -0.277913 1.565125 0.065233
v -0.277035 -1.760956 0.065233
v 0.732749 -0.012866 0.179413
v 0.885374 1.382426 0.065233
v 0.848789 -1.327218 0.065233
v -0.246020 0.494744 0.199851
v -0.245925 -0.752366 0.209364
v 0.734990 0.500050 0.168244
v 0.731777 -0.527434 0.178183
v -0.731777 -0.527434 0.178183
v -1.003010 -0.436893 0.126683
v -0.492628 -0.668214 0.195531
v -0.493576 0.462633 0.191175
v -0.734990 0.500050 0.168244
v -1.024873 0.642135 0.120135
v -1.326513 0.993718 -0.076891
v -1.235354 -0.395071 -0.076891
v 1.134608 -0.431897 0.065233
v 1.003010 -0.436893 0.126683
v 1.235354 -0.395071 -0.076891
v 1.326513 0.993718 -0.076891
v 1.193100 0.791146 0.065232
v 1.024873 0.642135 0.120135
v -1.134608 -0.431897 0.065233
v -1.193100 0.791146 0.065232
v 0.000000 0.531982 0.200822
v 0.246020 0.494744 0.199851
v 0.000000 -0.781680 0.215928
v 0.245925 -0.752366 0.209364
v 0.492628 -0.668214 0.195531
v 0.493576 0.462633 0.191175
v -0.599632 1.699418 -0.215927
v -0.962900 1.681868 -0.215927
v -1.354370 1.771643 -0.215928
v -1.326513 0.993718 -0.215928
v -1.289795 0.257558 -0.215928
v -0.582221 -1.778768 -0.215928
v -0.896584 -1.517648 -0.215928
v -1.235354 -0.395071 -0.215928
v -1.154328 -0.922404 -0.215928
v 1.154328 -0.922404 -0.215928
v 1.235354 -0.395071 -0.215928
v 1.289795 0.257558 -0.215928
v 1.326513 0.993718 -0.215928
v 1.354370 1.771643 -0.215928
v 0.285715 1.904785 -0.215927
v 0.000000 2.217477 -0.215927
v 0.599632 1.699418 -0.215927
v 0.283974 -1.998122 -0.215928
v 0.000000 -2.217478 -0.215928
v 0.582221 -1.778768 -0.215928
v -0.285715 1.904785 -0.215927
v -0.283974 -1.998122 -0.215928
v 0.962900 1.681868 -0.215927
v 0.896584 -1.517648 -0.215928
v 0.000000 0.108604 -0.215928
vn -0.2729 -0.0267 0.9617
vn -0.2791 -0.0774 0.9571
vn -0.1808 -0.1229 0.9758
vn -0.1278 -0.0297 0.9914
vn -0.1340 0.0061 0.9910
vn -0.2514 0.0003 0.9679
vn -0.1255 -0.1362 0.9827
vn -0.0819 -0.0478 0.9955
vn -0.0634 0.0053 0.9980
vn -0.1131 0.0403 0.9928
vn -0.0593 0.0484 0.9971
vn -0.0603 0.1195 0.9910
vn -0.0574 0.1160 0.9916
vn -0.2235 0.0213 0.9745
vn -0.1437 0.0548 0.9881
vn -0.0349 0.1478 0.9884
vn -0.1014 0.0805 0.9916
vn -0.0736 0.1972 0.9776
vn -0.2193 -0.2128 0.9522
vn -0.1784 -0.2303 0.9566
vn -0.3889 -0.1557 0.9080
vn 0.2729 -0.0267 0.9617
vn 0.2791 -0.0774 0.9571
vn 0.3889 -0.1557 0.9080
vn 0.4288 -0.0399 0.9025
vn 0.3625 -0.0079 0.9319
vn 0.2514 0.0003 0.9679
vn 0.2235 0.0213 0.9745
vn 0.2377 0.0159 0.9712
vn 0.1014 0.0805 0.9916
vn 0.1437 0.0548 0.9881
vn -0.4288 -0.0399 0.9025
vn -0.3625 -0.0079 0.9319
vn -0.2378 0.0159 0.9712
vn -0.0000 0.1300 0.9915
vn -0.0000 0.0540 0.9985
vn 0.0328 0.0517 0.9981
vn 0.0657 0.1183 0.9908
vn -0.0000 0.0097 1.0000
vn 0.0319 0.0073 0.9995
vn -0.0000 -0.0474 0.9989
vn 0.0532 -0.0483 0.9974
vn -0.0000 -0.1553 0.9879
vn 0.0982 -0.1379 0.9856
vn 0.0819 -0.0478 0.9955
vn 0.0634 0.0053 0.9980
vn 0.1255 -0.1362 0.9827
vn 0.0593 0.0484 0.9971
vn 0.0603 0.1195 0.9910
vn 0.1229 0.1784 0.9762
vn -0.0000 0.1715 0.9852
vn 0.0735 0.1972 0.9776
vn -0.0000 -0.2294 0.9733
vn 0.1544 -0.2296 0.9609
vn 0.1786 -0.2300 0.9567
vn -0.0328 0.0517 0.9981
vn -0.0657 0.1183 0.9908
vn -0.0319 0.0073 0.9995
vn -0.0532 -0.0483 0.9974
vn -0.0982 -0.1379 0.9856
vn -0.1228 0.1785 0.9762
vn -0.1546 -0.2297 0.9609
vn 0.1131 0.0405 0.9928
vn 0.0574 0.1160 0.9916
vn 0.1340 0.0061 0.9910
vn 0.1278 -0.0297 0.9914
vn 0.1808 -0.1229 0.9758
vn 0.0349 0.1478 0.9884
vn 0.2193 -0.2128 0.9522
vn -0.4498 0.1847 0.8738
vn 0.0248 0.4269 0.9040
vn 0.0449 0.4288 0.9023
vn -0.2608 0.2890 0.9211
vn -0.1136 0.4063 0.9067
vn -0.1394 0.4013 0.9053
vn -0.2701 0.3665 0.8903
vn -0.3094 0.3502 0.8841
vn -0.0000 0.3579 0.9338
vn 0.2702 0.3666 0.8903
vn 0.3092 0.3503 0.8841
vn 0.1135 0.4063 0.9067
vn 0.1398 0.4013 0.9052
vn -0.0251 0.4269 0.9040
vn -0.0444 0.4288 0.9023
vn 0.4498 0.1847 0.8738
vn 0.2608 0.2890 0.9211
vn 0.7564 -0.0290 0.6534
vn 0.7358 -0.0227 0.6768
vn 0.7913 -0.0495 0.6094
vn 0.7786 -0.0405 0.6262
vn 0.8006 -0.1026 0.5904
vn 0.8023 -0.0889 0.5902
vn 0.7508 -0.2460 0.6130
vn 0.7618 -0.2221 0.6086
vn 0.6156 -0.3782 0.6914
vn 0.5039 -0.4317 0.7481
vn 0.3725 -0.4761 0.7966
vn 0.3618 -0.4758 0.8017
vn 0.3476 -0.4714 0.8105
vn 0.3467 -0.4677 0.8131
vn -0.0000 -0.4943 0.8693
vn -0.3476 -0.4714 0.8105
vn -0.3467 -0.4677 0.8131
vn -0.3725 -0.4761 0.7966
vn -0.3614 -0.4758 0.8019
vn -0.6156 -0.3782 0.6914
vn -0.5039 -0.4317 0.7481
vn -0.7508 -0.2460 0.6130
vn -0.7618 -0.2221 0.6086
vn -0.8006 -0.1026 0.5904
vn -0.8023 -0.0889 0.5902
vn -0.7913 -0.0495 0.6094
vn -0.7786 -0.0405 0.6262
vn -0.7564 -0.0290 0.6534
vn -0.7358 -0.0227 0.6768
vn 0.0953 0.9954 -0.0000
vn -0.3127 0.9499 -0.0000
vn 0.2235 0.9747 -0.0000
vn -0.9991 -0.0423 -0.0000
vn -0.9994 -0.0358 -0.0000
vn -0.9979 -0.0655 -0.0000
vn -0.6171 -0.7869 -0.0000
vn -0.8315 -0.5555 -0.0000
vn -0.9935 -0.1141 -0.0000
vn -0.9574 -0.2889 -0.0000
vn 0.9935 -0.1141 -0.0000
vn 0.9574 -0.2889 -0.0000
vn 0.9979 -0.0655 -0.0000
vn 0.9991 -0.0423 -0.0000
vn 0.9994 -0.0358 -0.0000
vn 0.7382 0.6745 -0.0000
vn 0.6537 0.7568 -0.0000
vn 0.3127 0.9499 -0.0000
vn 0.6019 -0.7985 -0.0000
vn -0.0000 -1.0000 -0.0000
vn 0.6171 -0.7869 -0.0000
vn -0.6537 0.7568 -0.0000
vn -0.7382 0.6745 -0.0000
vn -0.6019 -0.7985 -0.0000
vn -0.0953 0.9954 -0.0000
vn -0.2235 0.9747 -0.0000
vn 0.8315 -0.5555 -0.0000
vn -0.0000 -0.0000 -1.0000
vt 0.044150 0.485783
vt 0.048245 0.456266
vt 0.061782 0.436286
vt 0.065929 0.478954
vt 0.065479 0.519415
vt 0.042375 0.527872
vt 0.082516 0.420781
vt 0.084860 0.468080
vt 0.084497 0.512499
vt 0.064970 0.559762
vt 0.084038 0.556959
vt 0.080675 0.605012
vt 0.058946 0.603993
vt 0.041855 0.570812
vt 0.048274 0.594249
vt 0.052082 0.629479
vt 0.026919 0.633187
vt 0.076971 0.630868
vt 0.056504 0.415294
vt 0.079315 0.397514
vt 0.040657 0.446842
vt 0.202665 0.487042
vt 0.199039 0.457463
vt 0.206777 0.448162
vt 0.214089 0.487415
vt 0.216587 0.534492
vt 0.203771 0.529154
vt 0.203608 0.572097
vt 0.217281 0.584047
vt 0.217551 0.634702
vt 0.196817 0.595429
vt 0.032721 0.485974
vt 0.029476 0.533005
vt 0.027994 0.582543
vt 0.122301 0.625639
vt 0.122801 0.562732
vt 0.142160 0.559948
vt 0.143011 0.614125
vt 0.123212 0.511026
vt 0.142531 0.510885
vt 0.123621 0.459537
vt 0.142897 0.461970
vt 0.124105 0.398598
vt 0.144561 0.408493
vt 0.162242 0.468695
vt 0.161898 0.513114
vt 0.165336 0.421439
vt 0.161651 0.557576
vt 0.164249 0.605676
vt 0.144323 0.644940
vt 0.121989 0.664876
vt 0.167543 0.631588
vt 0.124364 0.366028
vt 0.146503 0.381604
vt 0.168906 0.398226
vt 0.103489 0.559641
vt 0.101777 0.613797
vt 0.103898 0.510579
vt 0.104309 0.461664
vt 0.103494 0.408167
vt 0.099976 0.644588
vt 0.101980 0.381251
vt 0.180672 0.560681
vt 0.185992 0.605002
vt 0.180804 0.520332
vt 0.180997 0.479868
vt 0.185821 0.437272
vt 0.192450 0.630594
vt 0.191433 0.416367
vt 0.180367 0.373179
vt 0.165770 0.373115
vt 0.169952 0.359056
vt 0.184908 0.358558
vt 0.152539 0.371764
vt 0.154022 0.356820
vt 0.140131 0.365624
vt 0.138581 0.349924
vt 0.126509 0.357740
vt 0.122683 0.340435
vt 0.116728 0.357732
vt 0.102803 0.365322
vt 0.104754 0.349559
vt 0.121025 0.340399
vt 0.090238 0.371209
vt 0.088989 0.356084
vt 0.077012 0.372375
vt 0.072845 0.358186
vt 0.062528 0.372522
vt 0.057783 0.357696
vt 0.052117 0.398941
vt 0.047767 0.387421
vt 0.041707 0.424322
vt 0.036000 0.417325
vt 0.032102 0.448581
vt 0.025814 0.443983
vt 0.024958 0.469609
vt 0.017978 0.465721
vt 0.020250 0.488554
vt 0.010589 0.492485
vt 0.019995 0.505123
vt 0.009212 0.509859
vt 0.019171 0.520632
vt 0.008277 0.525936
vt 0.018453 0.535505
vt 0.007143 0.541566
vt 0.228853 0.533471
vt 0.227744 0.518752
vt 0.238693 0.523714
vt 0.240225 0.539185
vt 0.226479 0.503418
vt 0.237316 0.507796
vt 0.225710 0.487014
vt 0.235419 0.490620
vt 0.220428 0.468381
vt 0.227226 0.464312
vt 0.212679 0.447754
vt 0.218771 0.443003
vt 0.202413 0.423985
vt 0.207872 0.416886
vt 0.191361 0.399074
vt 0.195381 0.387567
vt 0.155749 0.351003
vt 0.170814 0.353134
vt 0.188590 0.354358
vt 0.201055 0.385177
vt 0.213417 0.414536
vt 0.241252 0.489284
vt 0.243343 0.507145
vt 0.224348 0.440738
vt 0.232900 0.462335
vt 0.012171 0.463915
vt 0.020112 0.441871
vt 0.030340 0.415131
vt 0.042104 0.385212
vt 0.053635 0.353903
vt 0.102177 0.344098
vt 0.118158 0.335143
vt 0.087386 0.350132
vt 0.001091 0.541133
vt 0.002217 0.525527
vt 0.003169 0.509390
vt 0.141319 0.344531
vt 0.125673 0.335237
vt 0.244703 0.523149
vt 0.246212 0.538597
vt 0.071952 0.351863
vt 0.004665 0.491371
vt 0.317129 0.647631
vt 0.303799 0.647805
vt 0.283888 0.588754
vt 0.331354 0.651426
vt 0.331338 0.622892
vt 0.330945 0.595877
vt 0.307656 0.520366
vt 0.318834 0.530338
vt 0.329794 0.571899
vt 0.327507 0.552477
vt 0.239285 0.568706
vt 0.242934 0.549493
vt 0.236447 0.592544
vt 0.234150 0.619464
vt 0.232125 0.647925
vt 0.281163 0.666008
vt 0.271101 0.654184
vt 0.259866 0.646255
vt 0.276208 0.511211
vt 0.286894 0.503543
vt 0.264999 0.518861
vt 0.292034 0.654922
vt 0.297014 0.511945
vt 0.246581 0.645143
vt 0.253146 0.528021
s 1
usemtl MedievalAssets2K
f 73/1/1 1/2/2 37/3/3 72/4/4
f 73/1/1 72/4/4 54/5/5 40/6/6
f 72/4/4 37/3/3 13/7/7 74/8/8
f 72/4/4 74/8/8 38/9/9 54/5/5
f 76/10/10 54/5/5 38/9/9 75/11/11
f 76/10/10 75/11/11 14/12/12 39/13/13
f 77/14/14 40/6/6 54/5/5 76/10/10
f 77/14/14 76/10/10 39/13/13 3/15/15
f 3/15/15 39/13/13 55/16/16 43/17/17
f 55/16/16 39/13/13 14/12/12 41/18/18
f 56/19/19 46/20/20 13/7/7 37/3/3
f 47/21/21 56/19/19 37/3/3 1/2/2
f 81/22/22 2/23/23 48/24/24 80/25/25
f 81/22/22 80/25/25 57/26/26 51/27/27
f 85/28/28 51/27/27 57/26/26 84/29/29
f 85/28/28 84/29/29 50/30/30 4/31/31
f 86/32/32 47/21/21 1/2/2 73/1/1
f 86/32/32 73/1/1 40/6/6 58/33/33
f 87/34/34 58/33/33 40/6/6 77/14/14
f 87/34/34 77/14/14 3/15/15 43/17/17
f 10/35/35 88/36/36 89/37/37 22/38/38
f 88/36/36 52/39/39 59/40/40 89/37/37
f 59/40/40 52/39/39 90/41/41 91/42/42
f 90/41/41 9/43/43 53/44/44 91/42/42
f 59/40/40 91/42/42 92/45/45 21/46/46
f 91/42/42 53/44/44 17/47/47 92/45/45
f 22/38/38 89/37/37 93/48/48 18/49/49
f 89/37/37 59/40/40 21/46/46 93/48/48
f 10/35/35 22/38/38 60/50/50 23/51/51
f 60/50/50 22/38/38 18/49/49 24/52/52
f 27/53/53 61/54/54 53/44/44 9/43/43
f 53/44/44 61/54/54 28/55/55 17/47/47
f 14/12/12 75/11/11 68/56/56 30/57/57
f 75/11/11 38/9/9 62/58/58 68/56/56
f 62/58/58 38/9/9 74/8/8 69/59/59
f 74/8/8 13/7/7 29/60/60 69/59/59
f 62/58/58 69/59/59 90/41/41 52/39/39
f 69/59/59 29/60/60 9/43/43 90/41/41
f 30/57/57 68/56/56 88/36/36 10/35/35
f 68/56/56 62/58/58 52/39/39 88/36/36
f 41/18/18 14/12/12 30/57/57 63/61/61
f 63/61/61 30/57/57 10/35/35 23/51/51
f 13/7/7 46/20/20 64/62/62 29/60/60
f 29/60/60 64/62/62 27/53/53 9/43/43
f 18/49/49 93/48/48 70/63/63 34/64/64
f 93/48/48 21/46/46 65/65/65 70/63/63
f 65/65/65 21/46/46 92/45/45 71/66/66
f 92/45/45 17/47/47 33/67/67 71/66/66
f 65/65/65 71/66/66 81/22/22 51/27/27
f 71/66/66 33/67/67 2/23/23 81/22/22
f 34/64/64 70/63/63 85/28/28 4/31/31
f 70/63/63 65/65/65 51/27/27 85/28/28
f 24/52/52 18/49/49 34/64/64 66/68/68
f 66/68/68 34/64/64 4/31/31 50/30/30
f 17/47/47 28/55/55 67/69/69 33/67/67
f 33/67/67 67/69/69 48/24/24 2/23/23
f 43/70/70 55/71/71 42/72/72 5/73/73
f 55/71/71 41/74/74 15/75/75 42/72/72
f 41/74/74 63/76/76 31/77/77 15/75/75
f 63/76/76 23/78/78 11/79/78 31/77/77
f 23/80/78 60/81/79 25/82/80 11/83/78
f 60/81/79 24/84/81 19/85/82 25/82/80
f 24/84/81 66/86/83 35/87/84 19/85/82
f 66/86/83 50/88/85 6/89/86 35/87/84
f 50/88/85 84/90/87 83/91/88 6/89/86
f 84/90/87 57/92/89 49/93/90 83/91/88
f 57/92/89 80/94/91 82/95/92 49/93/90
f 80/94/91 48/96/93 8/97/94 82/95/92
f 48/96/93 67/98/95 36/99/96 8/97/94
f 67/98/95 28/100/97 20/101/98 36/99/96
f 28/100/97 61/102/99 26/103/100 20/101/98
f 61/102/99 27/104/101 12/105/101 26/103/100
f 27/106/101 64/107/102 32/108/103 12/109/101
f 64/107/102 46/110/104 16/111/105 32/108/103
f 46/110/104 56/112/106 44/113/107 16/111/105
f 56/112/106 47/114/108 7/115/109 44/113/107
f 47/114/108 86/116/110 79/117/111 7/115/109
f 86/116/110 58/118/112 45/119/113 79/117/111
f 58/118/112 87/120/114 78/121/115 45/119/113
f 87/120/114 43/70/70 5/73/73 78/121/115
f 42/72/116 15/75/117 94/122/117 95/123/116
f 5/73/118 42/72/116 95/123/116 96/124/118
f 78/121/119 5/73/120 96/124/120 97/125/119
f 45/119/121 78/121/119 97/125/119 98/126/121
f 16/111/122 44/113/123 100/127/123 99/128/122
f 79/117/124 45/119/121 98/126/121 101/129/124
f 44/113/123 7/115/125 102/130/125 100/127/123
f 7/115/125 79/117/124 101/129/124 102/130/125
f 82/95/126 8/97/127 103/131/127 104/132/126
f 49/93/128 82/95/126 104/132/126 105/133/128
f 83/91/129 49/93/128 105/133/128 106/134/129
f 6/89/130 83/91/129 106/134/129 107/135/130
f 11/83/131 25/82/132 108/136/132 109/137/131
f 25/82/132 19/85/133 110/138/133 108/136/132
f 26/103/134 12/105/135 112/139/135 111/140/134
f 20/101/136 26/103/134 111/140/134 113/141/136
f 15/75/117 31/77/137 114/142/137 94/122/117
f 31/77/137 11/79/138 109/143/138 114/142/137
f 32/108/139 16/111/122 99/128/122 115/144/139
f 12/109/135 32/108/139 115/144/139 112/145/135
f 19/85/133 35/87/140 116/146/140 110/138/133
f 35/87/140 6/89/141 107/135/141 116/146/140
f 36/99/142 20/101/136 113/141/136 117/147/142
f 8/97/127 36/99/142 117/147/142 103/131/127
f 95/148/143 94/149/143 118/150/143
f 96/151/143 95/148/143 118/150/143
f 97/152/143 96/151/143 118/150/143
f 98/153/143 97/152/143 118/150/143
f 99/154/143 100/155/143 118/150/143
f 101/156/143 98/153/143 118/150/143
f 100/155/143 102/157/143 118/150/143
f 102/157/143 101/156/143 118/150/143
f 104/158/143 103/159/143 118/150/143
f 105/160/143 104/158/143 118/150/143
f 106/161/143 105/160/143 118/150/143
f 107/162/143 106/161/143 118/150/143
f 109/163/143 108/164/143 118/150/143
f 108/164/143 110/165/143 118/150/143
f 111/166/143 112/167/143 118/150/143
f 113/168/143 111/166/143 118/150/143
f 94/149/143 114/169/143 118/150/143
f 114/169/143 109/163/143 118/150/143
f 115/170/143 99/154/143 118/150/143
f 112/167/143 115/170/143 118/150/143
f 110/165/143 116/171/143 118/150/143
f 116/171/143 107/162/143 118/150/143
f 117/172/143 113/168/143 118/150/143
f 103/159/143 117/172/143 118/150/143
