# This file uses centimeters as units for non-parametric coordinates.

mtllib pared.mtl
g default
v -2.009762 -2.009762 0.120742
v 2.009762 -2.009762 0.120742
v -2.009762 2.009762 0.120742
v 2.009762 2.009762 0.120742
v -2.009762 2.009762 -0.120742
v 2.009762 2.009762 -0.120742
v -2.009762 -2.009762 -0.120742
v 2.009762 -2.009762 -0.120742
vt 0.247339 0.005831
vt 0.713523 0.005787
vt 0.247383 0.472016
vt 0.713567 0.471972
vt 0.247385 0.500023
vt 0.713570 0.499979
vt 0.247429 0.966208
vt 0.713614 0.966164
vt 0.247432 0.994215
vt 0.713617 0.994171
vt 0.741531 0.005785
vt 0.741575 0.471969
vt 0.219331 0.005834
vt 0.219375 0.472019
vn 0.000000 0.000000 1.000000
vn 0.000000 0.000000 1.000000
vn 0.000000 0.000000 1.000000
vn 0.000000 0.000000 1.000000
vn 0.000000 1.000000 0.000000
vn 0.000000 1.000000 0.000000
vn 0.000000 1.000000 0.000000
vn 0.000000 1.000000 0.000000
vn 0.000000 0.000000 -1.000000
vn 0.000000 0.000000 -1.000000
vn 0.000000 0.000000 -1.000000
vn 0.000000 0.000000 -1.000000
vn 0.000000 -1.000000 0.000000
vn 0.000000 -1.000000 0.000000
vn 0.000000 -1.000000 0.000000
vn 0.000000 -1.000000 0.000000
vn 1.000000 0.000000 0.000000
vn 1.000000 0.000000 0.000000
vn 1.000000 0.000000 0.000000
vn 1.000000 0.000000 0.000000
vn -1.000000 0.000000 0.000000
vn -1.000000 0.000000 0.000000
vn -1.000000 0.000000 0.000000
vn -1.000000 0.000000 0.000000
s off
g wall
usemtl initialShadingGroup
f 1/1/1 2/2/2 4/4/3 3/3/4
f 3/3/5 4/4/6 6/6/7 5/5/8
f 5/5/9 6/6/10 8/8/11 7/7/12
f 7/7/13 8/8/14 2/10/15 1/9/16
f 2/2/17 8/11/18 6/12/19 4/4/20
f 7/13/21 1/1/22 3/3/23 5/14/24
