# This file uses centimeters as units for non-parametric coordinates.

mtllib test-node.mtl
g default
v -2.978393 -0.016877 2.978393
v 2.978393 -0.016877 2.978393
v -2.978393 0.016877 2.978393
v 2.978393 0.016877 2.978393
v -2.978393 0.016877 -2.978393
v 2.978393 0.016877 -2.978393
v -2.978393 -0.016877 -2.978393
v 2.978393 -0.016877 -2.978393
vt 0.016297 0.021898
vt 0.978102 0.016297
vt 0.021716 0.021897
vt 0.978103 0.021716
vt 0.021897 0.978284
vt 0.978284 0.978103
vt 0.021898 0.983703
vt 0.978285 0.983522
vt 0.983703 0.978102
vt 0.016478 0.978285
vt 0.983522 0.021715
vt 0.021715 0.016478
vn 0.000000 0.000000 1.000000
vn 0.000000 0.000000 1.000000
vn 0.000000 0.000000 1.000000
vn 0.000000 0.000000 1.000000
vn 0.000000 1.000000 0.000000
vn 0.000000 1.000000 0.000000
vn 0.000000 1.000000 0.000000
vn 0.000000 1.000000 0.000000
vn 0.000000 0.000000 -1.000000
vn 0.000000 0.000000 -1.000000
vn 0.000000 0.000000 -1.000000
vn 0.000000 0.000000 -1.000000
vn 1.000000 0.000000 0.000000
vn 1.000000 0.000000 0.000000
vn 1.000000 0.000000 0.000000
vn 1.000000 0.000000 0.000000
vn -1.000000 0.000000 0.000000
vn -1.000000 0.000000 0.000000
vn -1.000000 0.000000 0.000000
vn -1.000000 0.000000 0.000000
s off
g pCube1
usemtl initialShadingGroup
f 1/12/1 2/2/2 4/4/3 3/3/4
f 3/3/5 4/4/6 6/6/7 5/5/8
f 5/5/9 6/6/10 8/8/11 7/7/12
f 2/11/13 8/9/14 6/6/15 4/4/16
f 7/10/17 1/1/18 3/3/19 5/5/20
